<svg xmlns="http://www.w3.org/2000/svg" viewBox="0 0 194 194">
  <defs>
    <style>
      .cls-1, .cls-3, .cls-5 {
        fill: none;
      }

      .cls-1, .cls-3 {
        stroke: #2350e6;
      }

      .cls-1 {
        stroke-width: 4px;
      }

      .cls-2 {
        fill: #2350e6;
      }

      .cls-3 {
        stroke-width: 5px;
      }

      .cls-4 {
        stroke: none;
      }
    </style>
  </defs>
  <g id="Group_698" data-name="Group 698" transform="translate(-465 -497)">
    <g id="Ellipse_93" data-name="Ellipse 93" class="cls-1" transform="translate(465 497)">
      <circle class="cls-4" cx="97" cy="97" r="97"/>
      <circle class="cls-5" cx="97" cy="97" r="95"/>
    </g>
    <path id="Union_15" data-name="Union 15" class="cls-2" d="M78.894,111.785l-35.1-7.261q-.887-.15-1.767-.33-.988-.2-1.968-.443l-1.392-.288.154-.032A52.343,52.343,0,0,1,23.2,96.275,52.785,52.785,0,0,1,4.136,73.118a52.354,52.354,0,0,1-3.067-9.879,53.137,53.137,0,0,1,0-21.214A52.341,52.341,0,0,1,8.989,23.2,52.785,52.785,0,0,1,32.145,4.136a52.354,52.354,0,0,1,9.879-3.067,53.138,53.138,0,0,1,21.214,0,52.341,52.341,0,0,1,18.82,7.919,52.785,52.785,0,0,1,19.069,23.157,52.355,52.355,0,0,1,3.067,9.879,53.138,53.138,0,0,1,0,21.214,52.341,52.341,0,0,1-7.919,18.82A52.9,52.9,0,0,1,85.563,93.69l.458-.1s-7.548,7.446,1.639,14.394c4.816,3.643,2.173,4.51-1.432,4.51A50.944,50.944,0,0,1,78.894,111.785ZM43.444,7.969a45.334,45.334,0,0,0-16.3,6.86A45.724,45.724,0,0,0,10.625,34.886a45.335,45.335,0,0,0-2.656,8.558,46.027,46.027,0,0,0,0,18.376,45.329,45.329,0,0,0,6.86,16.3A45.717,45.717,0,0,0,34.886,94.638a45.335,45.335,0,0,0,8.558,2.656,46.028,46.028,0,0,0,18.376,0,45.337,45.337,0,0,0,16.3-6.859A45.721,45.721,0,0,0,94.638,70.377a45.335,45.335,0,0,0,2.656-8.558,46.027,46.027,0,0,0,0-18.376,45.342,45.342,0,0,0-6.859-16.3A45.729,45.729,0,0,0,70.377,10.625,45.335,45.335,0,0,0,61.82,7.969a46.027,46.027,0,0,0-18.376,0Z" transform="translate(509 537.41)"/>
    <path id="Path_385" data-name="Path 385" class="cls-3" d="M33.938,0A33.938,33.938,0,1,1,0,33.938" transform="translate(609.848 588.695) rotate(135)"/>
    <path id="Subtraction_10" data-name="Subtraction 10" class="cls-2" d="M16.134,32.269A16.135,16.135,0,0,1,4.726,4.726,16.028,16.028,0,0,1,16.134,0c.494,0,.994.023,1.484.067a8.251,8.251,0,0,0-.927,3.827,8.355,8.355,0,0,0,8.345,8.346,8.287,8.287,0,0,0,5.928-2.472,16.139,16.139,0,0,1-14.83,22.5Z" transform="translate(545.719 572.56)"/>
  </g>
</svg>
