<svg xmlns="http://www.w3.org/2000/svg" viewBox="0 0 176.574 176.574">
  <defs>
    <style>
      .cls-1, .cls-2, .cls-6 {
        fill: none;
      }

      .cls-1, .cls-2 {
        stroke: #dddfe7;
      }

      .cls-2 {
        stroke-width: 3px;
      }

      .cls-3 {
        fill: #dddfe7;
      }

      .cls-4 {
        fill: #f0f2f8;
      }

      .cls-5 {
        stroke: none;
      }
    </style>
  </defs>
  <g id="icon_upload" transform="translate(0 0)">
    <g id="Ellipse_39" data-name="Ellipse 39" class="cls-1">
      <circle class="cls-5" cx="88.287" cy="88.287" r="88.287"/>
      <circle class="cls-6" cx="88.287" cy="88.287" r="87.787"/>
    </g>
    <g id="Ellipse_40" data-name="Ellipse 40" class="cls-2" transform="translate(12.348 12.348)">
      <circle class="cls-5" cx="75.939" cy="75.939" r="75.939"/>
      <circle class="cls-6" cx="75.939" cy="75.939" r="74.439"/>
    </g>
    <circle id="Ellipse_41" data-name="Ellipse 41" class="cls-3" cx="61.122" cy="61.122" r="61.122" transform="translate(27.165 27.165)"/>
    <path id="Path_344" data-name="Path 344" class="cls-4" d="M48.841,27.026,27.721,1.317a3.741,3.741,0,0,0-5.783,0L.818,27.026a3.744,3.744,0,0,0,2.891,6.129H14.332V66.532a3.729,3.729,0,0,0,3.74,3.74H31.587a3.729,3.729,0,0,0,3.74-3.74V33.155H45.95A3.744,3.744,0,0,0,48.841,27.026Z" transform="translate(63.019 53.639)"/>
  </g>
</svg>
