<svg xmlns="http://www.w3.org/2000/svg" viewBox="0 0 56.13 54.637">
  <defs>
    <style>
      .cls-1 {
        fill: #d3ac57;
      }
    </style>
  </defs>
  <g id="Symbol_8_1" data-name="Symbol 8 – 1" transform="translate(-551 1158.13)">
    <path id="Path_4" data-name="Path 4" class="cls-1" d="M71.834,78.679c-4.979,3.69-8.537.7-8.537.7L51.911,66.6s10.987.7,10.254-10.121c0,0-.4-6.858-9.188-7.258,0,0-5.26-1-10.787,5.526,0,0-8.456,10.92.649,28.4A27.909,27.909,0,0,1,25.677,56.944a28.067,28.067,0,1,1,56.13,0A27.159,27.159,0,0,1,71.834,78.679Z" transform="translate(525.323 -1186.643)"/>
    <path id="Path_5" data-name="Path 5" class="cls-1" d="M76.019,110.291a25.621,25.621,0,0,0,2.492,8.589s4.938,7.668-2.492,15.153c0,0-7.3-6.83-3.5-13.289A65.47,65.47,0,0,0,76.019,110.291Z" transform="translate(496.859 -1237.526)"/>
  </g>
</svg>
