<svg xmlns="http://www.w3.org/2000/svg" viewBox="0 0 90 90">
  <defs>
    <style>
      .cls-1, .cls-3, .cls-5 {
        fill: none;
      }

      .cls-1 {
        stroke: #de9100;
      }

      .cls-1, .cls-2, .cls-3 {
        stroke-width: 2px;
      }

      .cls-2 {
        fill: #fff;
      }

      .cls-2, .cls-3 {
        stroke: #254495;
      }

      .cls-4 {
        stroke: none;
      }
    </style>
  </defs>
  <g id="Symbol_24_1" data-name="Symbol 24 – 1" transform="translate(-956 -209)">
    <g id="Ellipse_10" data-name="Ellipse 10" class="cls-1" transform="translate(956 209)">
      <circle class="cls-4" cx="45" cy="45" r="45"/>
      <circle class="cls-5" cx="45" cy="45" r="44"/>
    </g>
    <path id="Path_196" data-name="Path 196" class="cls-2" d="M40.854-.61c.336.425,0,17.25,0,17.25a4.539,4.539,0,0,1-4.539,4.539H4.539A4.539,4.539,0,0,1,0,16.64V-.61L17.9-15.555a4.274,4.274,0,0,1,5.214,0C25.726-13.494,40.519-1.035,40.854-.61Z" transform="translate(977.996 252)"/>
    <path id="Path_197" data-name="Path 197" class="cls-2" d="M35.407,0V11.712c0,.539-.813.976-1.816.976H1.816c-1,0-1.816-.437-1.816-.976V0" transform="translate(1016.127 253.184) rotate(180)"/>
    <path id="Path_198" data-name="Path 198" class="cls-3" d="M-2668.039,1359.756l39.894,19.465" transform="translate(3646 -1107.679)"/>
    <path id="Path_199" data-name="Path 199" class="cls-3" d="M-2625.117,1359.836l-21.512,9.3" transform="translate(3644.027 -1107.687)"/>
    <line id="Line_90" data-name="Line 90" class="cls-3" x2="23" transform="translate(986.5 246.5)"/>
    <line id="Line_91" data-name="Line 91" class="cls-3" x2="23" transform="translate(986.5 252.5)"/>
  </g>
</svg>
