<svg xmlns="http://www.w3.org/2000/svg" viewBox="0 0 26.531 22.174">
  <defs>
    <style>
      .cls-1, .cls-3 {
        fill: none;
      }

      .cls-2, .cls-5 {
        fill: #fff;
      }

      .cls-3 {
        stroke: #fff;
        stroke-width: 3px;
      }

      .cls-4, .cls-5 {
        stroke: none;
      }
    </style>
  </defs>
  <g id="home-1" transform="translate(-71 -99)">
    <g id="Path_188" data-name="Path 188" class="cls-1" transform="translate(71 99)">
      <path class="cls-4" d="M2.527,0H24a2.527,2.527,0,0,1,2.527,2.527V18.319A2.527,2.527,0,0,1,24,20.846H2.527A2.527,2.527,0,0,1,0,18.319V2.527A2.527,2.527,0,0,1,2.527,0Z"/>
      <path class="cls-5" d="M 2.526739120483398 1.999998092651367 C 2.236289978027344 1.999998092651367 2 2.236297607421875 2 2.526758193969727 L 2 18.3189582824707 C 2 18.60941886901855 2.236289978027344 18.84571838378906 2.526739120483398 18.84571838378906 L 24.00402069091797 18.84571838378906 C 24.29446983337402 18.84571838378906 24.53075981140137 18.60941886901855 24.53075981140137 18.3189582824707 L 24.53075981140137 2.526758193969727 C 24.53075981140137 2.236297607421875 24.29446983337402 1.999998092651367 24.00402069091797 1.999998092651367 L 2.526739120483398 1.999998092651367 M 2.526739120483398 -1.9073486328125e-06 L 24.00402069091797 -1.9073486328125e-06 C 25.39949989318848 -1.9073486328125e-06 26.53075981140137 1.131267547607422 26.53075981140137 2.526758193969727 L 26.53075981140137 18.3189582824707 C 26.53075981140137 19.71444892883301 25.39949989318848 20.84571838378906 24.00402069091797 20.84571838378906 L 2.526739120483398 20.84571838378906 C 1.131259918212891 20.84571838378906 0 19.71444892883301 0 18.3189582824707 L 0 2.526758193969727 C 0 1.131267547607422 1.131259918212891 -1.9073486328125e-06 2.526739120483398 -1.9073486328125e-06 Z"/>
    </g>
    <g id="Group_750" data-name="Group 750" transform="translate(-4191.311 162.862)">
      <rect id="Rectangle_281" data-name="Rectangle 281" class="cls-2" width="6.651" height="4.157" transform="translate(4268.311 -58.862)"/>
      <rect id="Rectangle_322" data-name="Rectangle 322" class="cls-2" width="6.651" height="4.157" transform="translate(4276.625 -58.862)"/>
      <path id="Path_397" data-name="Path 397" class="cls-2" d="M0,0H15.5V3.761H0Z" transform="translate(4268.311 -52.37)"/>
    </g>
    <line id="Line_103" data-name="Line 103" class="cls-3" y2="1.643" transform="translate(84.961 119.532)"/>
  </g>
</svg>
