<svg xmlns="http://www.w3.org/2000/svg" viewBox="0 0 20.788 24.687">
  <defs>
    <style>
      .cls-1 {
        fill: none;
      }

      .cls-2, .cls-4 {
        fill: #fff;
      }

      .cls-3, .cls-4 {
        stroke: none;
      }
    </style>
  </defs>
  <g id="Symbol_69_1" data-name="Symbol 69 – 1" transform="translate(-350 -98)">
    <g id="Group_753" data-name="Group 753" transform="translate(242 -3.512)">
      <g id="Path_401" data-name="Path 401" class="cls-1" transform="translate(108 101.512)">
        <path class="cls-3" d="M3,0H17.788a3,3,0,0,1,3,3V21.687a3,3,0,0,1-3,3H3a3,3,0,0,1-3-3V3A3,3,0,0,1,3,0Z"/>
        <path class="cls-4" d="M 2.999998092651367 2 C 2.448598861694336 2 1.999998092651367 2.448600769042969 1.999998092651367 3 L 1.999998092651367 21.68666076660156 C 1.999998092651367 22.23805999755859 2.448598861694336 22.68666076660156 2.999998092651367 22.68666076660156 L 17.78841972351074 22.68666076660156 C 18.33981895446777 22.68666076660156 18.78841972351074 22.23805999755859 18.78841972351074 21.68666076660156 L 18.78841972351074 3 C 18.78841972351074 2.448600769042969 18.33981895446777 2 17.78841972351074 2 L 2.999998092651367 2 M 2.999998092651367 0 L 17.78841972351074 0 C 19.44526863098145 0 20.78841972351074 1.3431396484375 20.78841972351074 3 L 20.78841972351074 21.68666076660156 C 20.78841972351074 23.34350967407227 19.44526863098145 24.68666076660156 17.78841972351074 24.68666076660156 L 2.999998092651367 24.68666076660156 C 1.343149185180664 24.68666076660156 -1.9073486328125e-06 23.34350967407227 -1.9073486328125e-06 21.68666076660156 L -1.9073486328125e-06 3 C -1.9073486328125e-06 1.3431396484375 1.343149185180664 0 2.999998092651367 0 Z"/>
      </g>
      <circle id="Ellipse_104" data-name="Ellipse 104" class="cls-2" cx="2.5" cy="2.5" r="2.5" transform="translate(113 107.512)"/>
      <rect id="Rectangle_791" data-name="Rectangle 791" class="cls-2" width="5" height="5" transform="translate(120 107.512)"/>
      <rect id="Rectangle_792" data-name="Rectangle 792" class="cls-2" width="12" height="5" transform="translate(113 116.512)"/>
    </g>
  </g>
</svg>
