<svg xmlns="http://www.w3.org/2000/svg" viewBox="0 0 20.788 24.687">
  <defs>
    <style>
      .cls-1, .cls-2, .cls-4 {
        fill: none;
      }

      .cls-2 {
        stroke: #fff;
        stroke-width: 2px;
      }

      .cls-3, .cls-6 {
        fill: #fff;
      }

      .cls-5, .cls-6 {
        stroke: none;
      }
    </style>
  </defs>
  <g id="terms-1" transform="translate(-280 -98)">
    <g id="Symbol_67_1" data-name="Symbol 67 – 1" transform="translate(34)">
      <g id="Group_753" data-name="Group 753" transform="translate(138 -3.512)">
        <g id="Path_401" data-name="Path 401" class="cls-1" transform="translate(108 101.512)">
          <path class="cls-5" d="M3,0H17.788a3,3,0,0,1,3,3V21.687a3,3,0,0,1-3,3H3a3,3,0,0,1-3-3V3A3,3,0,0,1,3,0Z"/>
          <path class="cls-6" d="M 2.999998092651367 2 C 2.448598861694336 2 1.999998092651367 2.448600769042969 1.999998092651367 3 L 1.999998092651367 21.68666076660156 C 1.999998092651367 22.23805999755859 2.448598861694336 22.68666076660156 2.999998092651367 22.68666076660156 L 17.78841972351074 22.68666076660156 C 18.33981895446777 22.68666076660156 18.78841972351074 22.23805999755859 18.78841972351074 21.68666076660156 L 18.78841972351074 3 C 18.78841972351074 2.448600769042969 18.33981895446777 2 17.78841972351074 2 L 2.999998092651367 2 M 2.999998092651367 0 L 17.78841972351074 0 C 19.44526863098145 0 20.78841972351074 1.3431396484375 20.78841972351074 3 L 20.78841972351074 21.68666076660156 C 20.78841972351074 23.34350967407227 19.44526863098145 24.68666076660156 17.78841972351074 24.68666076660156 L 2.999998092651367 24.68666076660156 C 1.343149185180664 24.68666076660156 -1.9073486328125e-06 23.34350967407227 -1.9073486328125e-06 21.68666076660156 L -1.9073486328125e-06 3 C -1.9073486328125e-06 1.3431396484375 1.343149185180664 0 2.999998092651367 0 Z"/>
        </g>
        <line id="Line_107" data-name="Line 107" class="cls-2" x2="12" transform="translate(112.5 120.012)"/>
      </g>
      <g id="baseline-edit-24px" transform="translate(250 101.087)">
        <path id="Path_399" data-name="Path 399" class="cls-3" d="M3,11.092v2.13H5.13l6.282-6.282-2.13-2.13Zm10.059-5.8a.566.566,0,0,0,0-.8L11.73,3.164a.566.566,0,0,0-.8,0L9.889,4.2l2.13,2.13,1.039-1.039Z" transform="translate(-1.296 -1.295)"/>
        <path id="Path_400" data-name="Path 400" class="cls-4" d="M0,0H13.631V13.631H0Z"/>
      </g>
    </g>
  </g>
</svg>
